<svg xmlns="http://www.w3.org/2000/svg" width="512" height="512" viewBox="0 0 512 512" fill="none">
  <rect width="512" height="512" rx="128" fill="#031525"/>
  <circle cx="256" cy="256" r="176" fill="url(#glow)" fill-opacity="0.3"/>
  <circle cx="256" cy="256" r="144" fill="url(#core)"/>
  <path d="M256 128C306.509 184.514 344 226.512 344 280.112C344 328.713 304.601 368 256 368C207.399 368 168 328.713 168 280.112C168 226.512 205.491 184.514 256 128Z" fill="url(#drop)"/>
  <path d="M295.469 195.733C277.247 203.019 260.253 222.254 255.411 245.074C252.746 257.645 254.147 270.177 259.108 279.957C249.707 271.838 245.189 258.301 248.137 244.421C252.303 224.814 266.889 206.497 295.469 195.733Z" fill="#E8FBFF" fill-opacity="0.84"/>
  <path d="M197.333 336C213.893 318.339 233.003 309.509 254.667 309.509C276.331 309.509 295.44 318.339 312 336" stroke="#D7FBFF" stroke-opacity="0.72" stroke-width="16" stroke-linecap="round"/>
  <defs>
    <radialGradient id="glow" cx="0" cy="0" r="1" gradientUnits="userSpaceOnUse" gradientTransform="translate(256 256) rotate(90) scale(176)">
      <stop stop-color="#66E3FF"/>
      <stop offset="1" stop-color="#66E3FF" stop-opacity="0"/>
    </radialGradient>
    <linearGradient id="core" x1="101.333" y1="80" x2="410.667" y2="426.667" gradientUnits="userSpaceOnUse">
      <stop stop-color="#0C2840"/>
      <stop offset="1" stop-color="#082034"/>
    </linearGradient>
    <linearGradient id="drop" x1="256" y1="128" x2="256" y2="368" gradientUnits="userSpaceOnUse">
      <stop stop-color="#B4F5FF"/>
      <stop offset="0.48" stop-color="#52D6FF"/>
      <stop offset="1" stop-color="#0078C8"/>
    </linearGradient>
  </defs>
</svg>
